# xmcd
#
# Track frame offsets:
#        182
#        12010
#        25275
#        37172
#        49205
#        59565
#        72220
#        86942
#        101050
#        111685
#        124475
#        138530
#        151662
#        165385
#        177937
#        192535
#        205920
#        220050
#        231407
#        245225
#        256800
#        273425
#        285080
#        297357
#
# Disc length: 4141 seconds
#
# Revision: 8
# Processed by: cddbd v1.5.2PL0 Copyright (c) Steve Scherf et al.
# Submitted via: ExactAudioCopy v1.0b2
#
DISCID=77102b18
DTITLE=Freddy King - Blues Guitar Hero: The Influential Early Sessions
DYEAR=1991
DGENRE=Blues
TTITLE0=Hide Away
TTITLE1=Lonesome Whistle Blues
TTITLE2=San-Ho-Zay
TTITLE3=I'm Tore Down
TTITLE4=See See Baby
TTITLE5=Christmas Tears
TTITLE6=You've Got To Love Her With A Feeling
TTITLE7=Have You Ever Loved A Woman
TTITLE8=You Know That You Love Me
TTITLE9=I Love The Woman
TTITLE10=Tt's Too Bad Things Are Going So Tough
TTITLE11=Sen-Sa-Shun
TTITLE12=If You Believe In What You Do
TTITLE13=Takin' Care Of Business
TTITLE14=The Stumble
TTITLE15=Sittin' On The Boat Dock
TTITLE16=Side Tracked
TTITLE17=What About Love
TTITLE18=Come On
TTITLE19=Just Pickin'
TTITLE20=I'm On My Way To Atlanta
TTITLE21=In The Open
TTITLE22=(The Welfare) Turns Its Back On You
TTITLE23=She Put The Whammy On Me
EXTD=
EXTT0=
EXTT1=
EXTT2=
EXTT3=
EXTT4=
EXTT5=
EXTT6=
EXTT7=
EXTT8=
EXTT9=
EXTT10=
EXTT11=
EXTT12=
EXTT13=
EXTT14=
EXTT15=
EXTT16=
EXTT17=
EXTT18=
EXTT19=
EXTT20=
EXTT21=
EXTT22=
EXTT23=
PLAYORDER=
